<?xml version="1.0" standalone="no"?>
<!DOCTYPE svg PUBLIC "-//W3C//DTD SVG 20010904//EN"
 "http://www.w3.org/TR/2001/REC-SVG-20010904/DTD/svg10.dtd">
<svg version="1.0" xmlns="http://www.w3.org/2000/svg"
 width="512.000000pt" height="512.000000pt" viewBox="0 0 512.000000 512.000000"
 preserveAspectRatio="xMidYMid meet">
<metadata>
Created by potrace 1.14, written by Peter Selinger 2001-2017
</metadata>
<g transform="translate(0.000000,512.000000) scale(0.100000,-0.100000)"
fill="#000000" stroke="none">
<path d="M0 2560 l0 -2560 2560 0 2560 0 0 2560 0 2560 -2560 0 -2560 0 0
-2560z m4105 1079 c339 -83 581 -360 671 -770 21 -95 24 -364 5 -469 -61 -345
-254 -613 -534 -746 -122 -57 -183 -69 -357 -69 -174 0 -235 12 -357 69 -270
128 -450 369 -523 703 -17 77 -22 132 -22 258 0 217 29 361 108 531 185 396
592 595 1009 493z m-2790 -24 c291 -41 472 -179 529 -401 56 -216 -23 -417
-202 -512 -34 -18 -62 -37 -62 -42 0 -4 38 -27 84 -49 171 -83 267 -242 266
-444 -2 -291 -179 -475 -526 -543 -58 -11 -169 -17 -419 -21 -340 -5 -502 3
-531 28 -19 16 -21 1968 -2 1987 18 18 731 16 863 -3z m1429 -21 c11 -29 7
-1934 -4 -1955 -10 -18 -24 -19 -295 -19 -271 0 -285 1 -295 19 -11 21 -15
1926 -4 1955 5 14 41 16 299 16 258 0 294 -2 299 -16z"/>
<path d="M3826 2956 c-61 -23 -108 -68 -143 -137 -105 -206 -26 -483 152 -535
216 -62 387 259 274 515 -57 130 -177 196 -283 157z"/>
<path d="M1054 3117 c-2 -7 -3 -64 -2 -127 3 -131 7 -137 83 -125 36 5 57 15
82 40 30 30 33 39 33 89 0 64 -18 99 -61 122 -36 18 -128 19 -135 1z"/>
<path d="M1054 2367 c-2 -7 -3 -67 -2 -133 l3 -119 72 -3 c67 -3 73 -1 106 28
64 56 57 170 -12 217 -27 18 -48 23 -98 23 -43 0 -65 -4 -69 -13z"/>
</g>
</svg>
